# Blender v2.93.5 OBJ File: 'car.blend'
# www.blender.org
mtllib obj_car_glass.mtl
o Plane.001
v -5.292280 0.638741 0.648143
v -0.446189 1.871612 0.648143
v -2.467139 1.943619 0.648143
v 2.841412 1.088380 1.625596
v 4.035967 0.803791 1.980755
v 1.391516 0.374203 2.780322
v -1.961901 0.506928 -2.735255
v -5.292280 0.638741 0.022533
v -2.467139 1.943619 0.022533
v -5.292280 0.638741 -2.735255
v 2.841412 1.088380 -1.580529
v 4.035967 0.803791 -1.935688
v 1.391516 0.374203 -2.735255
v -2.467139 0.526925 2.780322
v -2.467139 0.526925 -2.735255
v -5.292280 0.638741 2.780322
v -5.292280 0.638741 -0.603077
v -2.467139 1.943619 -0.603077
v -1.961901 0.506928 2.780322
v -1.961901 1.925617 0.648144
v -0.446189 1.871611 -0.603077
v -0.446189 1.871611 0.022533
v -1.961901 1.925617 -0.603077
v 4.035967 0.803791 0.675274
v 4.035967 0.803791 -0.630207
v -0.446189 1.871612 0.648143
v 2.841412 1.088380 1.625596
v -2.467139 1.943619 0.648143
v -5.292280 0.638741 2.780322
v -2.467139 1.943619 -0.603077
v -5.292280 0.638741 -2.735255
v -0.446189 1.871611 -0.603077
v 2.841412 1.088380 -1.580529
vt 0.159873 0.008180
vt 0.254472 0.008180
vt 0.159873 0.138518
vt 0.104360 0.008180
vt 0.104360 0.138518
vt 0.009762 0.008180
vt 0.159873 0.232183
vt 0.254472 0.162538
vt 0.254472 0.317963
vt 0.254472 0.008180
vt 0.254472 0.139120
vt 0.159873 0.138518
vt 0.009762 0.008180
vt 0.104360 0.138518
vt 0.009762 0.139120
vt 0.132117 0.008180
vt 0.132117 0.138518
vt 0.218997 0.440303
vt 0.060994 0.384836
vt 0.203240 0.384836
vt 0.132117 0.232183
vt 0.009762 0.162538
vt 0.104360 0.232183
vt 0.009762 0.317963
vt 0.159873 0.232183
vt 0.203240 0.384836
vt 0.060994 0.384836
vt 0.159873 0.161935
vt 0.161077 0.440303
vt 0.103157 0.440303
vt 0.045236 0.440303
vt 0.104360 0.232183
vt 0.104360 0.161935
vn -0.4193 0.9078 0.0000
vn 0.0316 0.8314 0.5547
vn 0.0318 0.8314 0.5547
vn 0.0329 0.8310 0.5553
vn 0.0329 0.8325 0.5531
vn 0.0329 0.8325 -0.5531
vn 0.2317 0.9727 0.0000
vn 0.0318 0.8314 -0.5547
vn 0.0316 0.8314 -0.5547
vn 0.0329 0.8310 -0.5553
vn 0.0296 0.8322 0.5537
vn 0.0296 0.8322 -0.5537
usemtl Material.001
s 1
f 1/1/1 29/2/1 28/3/1
f 17/4/1 30/5/1 10/6/1
f 2/7/2 19/8/3 6/9/4
f 16/10/5 14/11/5 3/12/5
f 31/13/6 18/14/6 15/15/6
f 8/16/1 28/3/1 9/17/1
f 5/18/7 11/19/7 4/20/7
f 11/19/7 22/21/7 4/20/7
f 7/22/8 21/23/9 13/24/10
f 4/20/7 22/21/7 26/25/7
f 6/9/4 27/26/4 2/7/2
f 21/23/9 33/27/10 13/24/10
f 8/16/1 30/5/1 17/4/1
f 2/7/2 20/28/11 19/8/3
f 8/16/1 1/1/1 28/3/1
f 5/18/7 24/29/7 25/30/7 12/31/7 11/19/7
f 11/19/7 32/32/7 22/21/7
f 7/22/8 23/33/12 21/23/9
f 8/16/1 9/17/1 30/5/1
